<svg width="800" height="800" viewBox="0 0 800 800" fill="none" xmlns="http://www.w3.org/2000/svg">
<g clip-path="url(#clip0_1_7)">
<path d="M800 0H0V800H800V0Z" fill="#333355"/>
<path d="M200.341 393.033C193.164 385.023 183.113 380.164 172.37 379.508C161.627 378.853 151.058 382.455 142.958 389.533C134.858 396.61 129.881 406.592 129.106 417.312C128.331 428.031 131.822 438.623 138.821 446.788L281.892 610.055C285.643 614.337 290.249 617.789 295.415 620.189C300.58 622.59 306.192 623.885 311.888 623.993C317.585 624.1 323.241 623.018 328.494 620.814C333.747 618.611 338.48 615.335 342.391 611.197L689.85 243.848C697.292 235.973 701.297 225.468 700.983 214.644C700.668 203.821 696.061 193.565 688.174 186.134C680.287 178.702 669.766 174.703 658.926 175.017C648.087 175.331 637.816 179.932 630.373 187.807L313.776 522.503L200.341 393.033Z" fill="white"/>
</g>
<defs>
<clipPath id="clip0_1_7">
<rect width="800" height="800" fill="white"/>
</clipPath>
</defs>
</svg>
